<svg width="200" height="48" viewBox="0 0 200 48" fill="none" xmlns="http://www.w3.org/2000/svg">
<path d="M71.6253 25.9506C68.6878 25.661 65.2575 26.731 62.827 28.3976C61.3799 29.3899 59.1679 31.0005 59.0121 32.948C58.7911 35.7106 61.6512 36.9998 64.0367 36.3918C68.9293 35.1446 72.5095 31.6125 75.1034 27.3803C75.8479 26.1657 76.3451 24.8114 77.0075 23.5517C77.834 21.9795 78.6255 20.4045 79.4064 18.8088C80.421 16.7354 81.153 14.5932 81.9222 12.4231C82.2454 11.5112 82.4596 10.5698 82.7333 9.64613C82.9893 8.78213 82.2202 11.0619 82.1971 11.1377C81.4467 13.599 80.1892 15.8582 79.3926 18.307C78.7715 20.2163 78.409 22.2108 77.7429 24.1016C76.7466 26.93 75.5985 29.7935 74.7941 32.68C74.5716 33.4783 73.9492 35.0116 74.2786 35.8762C74.5714 36.6448 75.0928 36.5232 75.8458 36.4055C76.1506 36.3579 77.2981 36.5046 77.4405 36.2199" stroke="white" stroke-width="3" stroke-linecap="round"/>
<path d="M90.4318 24.3421C87.7916 23.6261 85.1667 25.5583 83.2213 27.1604C81.7083 28.4063 80.9312 30.1462 81.331 32.1232C81.5267 33.0905 82.1035 35.0181 83.2694 35.2301C85.5649 35.6475 87.2509 34.8658 88.6034 32.948C90.7715 29.8739 91.5469 25.8359 92.7208 22.3144C92.9041 21.7644 92.9064 21.4936 92.9064 22.2663C92.9064 23.8075 92.5433 25.2995 92.5352 26.8442C92.522 29.3536 92.25 32.624 94.2674 34.5496C94.823 35.08 95.1127 35.3538 95.917 35.3538C97.1213 35.3538 98.4106 35.2181 99.5876 34.9827" stroke="white" stroke-width="3" stroke-linecap="round"/>
<path d="M107.754 20.8778C106.29 22.8486 105.88 25.5889 105.327 27.9165C104.57 31.103 103.96 34.3709 103.024 37.5122C102.836 38.1462 102.435 38.8 102.88 37.7459C104.113 34.8269 105.195 31.8975 106.283 28.92C107.307 26.1166 108.783 22.809 111.72 21.5583C113.289 20.89 115.476 20.4569 117.184 20.6578C117.665 20.7144 118.041 21.0015 118.518 21.0015" stroke="white" stroke-width="3" stroke-linecap="round"/>
<path d="M131.262 9C130.343 15.0234 128.917 20.9765 128.354 27.0573C128.082 29.9941 128.292 33.0205 128.292 35.9725" stroke="white" stroke-width="3" stroke-linecap="round"/>
<path d="M128.911 24.2184C130.456 23.3354 132.133 22.4559 133.42 21.2077C134.591 20.0715 135.392 18.6529 136.142 17.221C136.858 15.8549 137.424 14.4236 138.19 13.083" stroke="white" stroke-width="3" stroke-linecap="round"/>
<path d="M130.767 23.3523C131.398 23.9657 132.086 24.5328 132.76 25.0982C134.168 26.2791 135.363 27.7724 136.499 29.2087C137.92 31.0047 139.282 32.8464 140.541 34.7352" stroke="white" stroke-width="3" stroke-linecap="round"/>
</svg>
