<svg width="200" height="48" viewBox="0 0 200 48" fill="none" xmlns="http://www.w3.org/2000/svg">
<path d="M43 39.6414C48.2868 38.2758 53.7921 35.9281 57.7624 32.0413C60.6079 29.2558 63.1366 26.1776 65.5211 22.9948C67.8832 19.8419 69.3889 16.3305 70.1205 12.4575C70.4438 10.7459 71.0006 8.96168 70.6978 7.19836C70.2823 4.77862 68.595 3.78317 66.3204 4.03906C64.0088 4.29912 62.6179 6.98066 61.9304 8.94929C61.3649 10.5686 61.0941 12.0851 61.0359 13.8024C60.9686 15.7882 60.5885 17.7554 60.4459 19.734C60.2309 22.7177 60.5628 25.5134 61.1818 28.4253C61.5319 30.0719 62.2045 31.7866 62.9137 33.3101C63.4121 34.3808 63.9327 35.1717 64.8613 35.8985C66.2709 37.0016 67.7714 37.5333 69.5432 37.7509C70.6623 37.8883 72.3208 37.72 73.2607 37.015" stroke="black" stroke-width="3" stroke-linecap="round"/>
<path d="M83.9947 22.2843C82.9132 24.0744 82.2484 25.6246 82.0788 27.7274C81.9565 29.2442 81.9819 30.7699 82.2818 32.2697C82.4451 33.086 82.5697 34.3849 83.4238 34.82C83.9901 35.1085 84.6266 35.2579 85.2508 35.3529C85.8024 35.4368 86.0502 35.5125 86.0502 34.9596" stroke="black" stroke-width="3" stroke-linecap="round"/>
<path d="M85.4792 15.8896C85.2182 16.1031 84.7403 16.5091 84.9336 16.9173C85.0449 17.1522 85.2566 17.1681 85.4538 17.0315C85.8892 16.7301 85.6297 16.0176 85.1366 16.3464" stroke="black" stroke-width="3" stroke-linecap="round"/>
<path d="M107.975 22.0559C105.767 21.7339 103.305 22.6683 101.504 23.9084C99.9276 24.9938 98.2053 26.3467 97.7485 28.3111C97.4451 29.6156 98.3456 31.0293 99.4486 31.6544C101.846 33.0127 104.851 33.8947 107.563 32.9612C110.284 32.0243 111.115 29.7893 111.515 27.1692C111.721 25.82 111.887 24.393 111.629 23.0392C111.551 22.6301 111.399 21.7581 111.489 22.7284C111.686 24.8436 111.662 27.0576 111.401 29.1612C111.103 31.5564 110.335 34.2876 109.231 36.4377C108.36 38.1341 107.416 39.8432 105.996 41.1386C103.974 42.9818 101.351 45.3588 98.3829 44.4819C96.2385 43.8483 95.5458 41.0702 97.0189 39.413C98.1889 38.0967 100.106 38.3257 101.694 37.9285" stroke="black" stroke-width="3" stroke-linecap="round"/>
<path d="M120.65 7.32524C120.65 9.87166 120.536 12.4153 120.536 14.9634C120.536 18.0501 120.626 21.1749 120.079 24.2256C119.758 26.0193 119.34 27.9941 118.531 29.6433C118.062 30.6008 117.756 31.7283 117.18 32.625C115.729 34.8815 119.168 27.6182 120.536 25.3104C121.445 23.7771 122.591 22.5084 123.924 21.32C124.612 20.7064 125.442 20.1309 126.398 20.1147C127.789 20.0911 129.548 21.7254 129.9 23.0202C130.433 24.9869 130.271 27.215 130.984 29.1168C131.633 30.8463 133.495 30.6203 135.038 30.6203" stroke="black" stroke-width="3" stroke-linecap="round"/>
<path d="M148.399 5.84075C147.852 10.4595 147.599 15.2436 147.599 19.899C147.599 22.0441 147.538 24.1403 147.257 26.2683C147.118 27.3132 147.005 28.3346 147.028 29.3896C147.067 31.1098 148.321 32.3813 149.921 32.7963C151.72 33.2625 153.572 33.7868 155.44 33.4497C155.824 33.3804 156.627 33.313 156.278 32.7899" stroke="black" stroke-width="3" stroke-linecap="round"/>
<path d="M140.748 16.8031C142.077 16.3685 143.454 16.1868 144.808 15.8515C146.527 15.4258 148.251 14.9195 149.921 14.329C151.407 13.8036 152.811 13.2313 154.349 12.8699C155.106 12.6922 155.879 12.572 156.62 12.3497" stroke="black" stroke-width="3" stroke-linecap="round"/>
</svg>
